<mxfile host="app.diagrams.net" agent="Mozilla/5.0 (Windows NT 10.0; Win64; x64) AppleWebKit/537.36 (KHTML, like Gecko) Chrome/128.0.0.0 Safari/537.36" version="24.7.8">
  <diagram id="C5RBs43oDa-KdzZeNtuy" name="Page-1">
    <mxGraphModel dx="1613" dy="759" grid="1" gridSize="10" guides="1" tooltips="1" connect="1" arrows="1" fold="1" page="1" pageScale="1" pageWidth="827" pageHeight="1169" math="0" shadow="0">
      <root>
        <mxCell id="WIyWlLk6GJQsqaUBKTNV-0" />
        <mxCell id="WIyWlLk6GJQsqaUBKTNV-1" parent="WIyWlLk6GJQsqaUBKTNV-0" />
        <mxCell id="h06LFHkNTTkvMEBM5bT5-1" value="" style="rounded=0;whiteSpace=wrap;html=1;" vertex="1" parent="WIyWlLk6GJQsqaUBKTNV-1">
          <mxGeometry x="30" y="70" width="290" height="150" as="geometry" />
        </mxCell>
        <mxCell id="h06LFHkNTTkvMEBM5bT5-2" value="catalog" style="text;html=1;align=center;verticalAlign=middle;whiteSpace=wrap;rounded=0;fontSize=16;" vertex="1" parent="WIyWlLk6GJQsqaUBKTNV-1">
          <mxGeometry x="60" y="70" width="60" height="30" as="geometry" />
        </mxCell>
        <mxCell id="h06LFHkNTTkvMEBM5bT5-3" value="author_name: string" style="text;html=1;align=center;verticalAlign=middle;whiteSpace=wrap;rounded=0;fontSize=16;" vertex="1" parent="WIyWlLk6GJQsqaUBKTNV-1">
          <mxGeometry x="50" y="100" width="160" height="30" as="geometry" />
        </mxCell>
        <mxCell id="h06LFHkNTTkvMEBM5bT5-4" value="no-of copies: integer" style="text;html=1;align=center;verticalAlign=middle;whiteSpace=wrap;rounded=0;fontSize=16;" vertex="1" parent="WIyWlLk6GJQsqaUBKTNV-1">
          <mxGeometry x="50" y="130" width="160" height="30" as="geometry" />
        </mxCell>
        <mxCell id="h06LFHkNTTkvMEBM5bT5-5" value="update ()&lt;br&gt;&amp;nbsp; &amp;nbsp; &amp;nbsp;Searching ()" style="text;html=1;align=center;verticalAlign=middle;whiteSpace=wrap;rounded=0;fontSize=16;" vertex="1" parent="WIyWlLk6GJQsqaUBKTNV-1">
          <mxGeometry x="10" y="170" width="160" height="30" as="geometry" />
        </mxCell>
        <mxCell id="h06LFHkNTTkvMEBM5bT5-6" value="" style="rounded=0;whiteSpace=wrap;html=1;" vertex="1" parent="WIyWlLk6GJQsqaUBKTNV-1">
          <mxGeometry x="30" y="350" width="290" height="150" as="geometry" />
        </mxCell>
        <mxCell id="h06LFHkNTTkvMEBM5bT5-7" value="Books" style="text;html=1;align=center;verticalAlign=middle;whiteSpace=wrap;rounded=0;fontSize=16;" vertex="1" parent="WIyWlLk6GJQsqaUBKTNV-1">
          <mxGeometry x="60" y="350" width="60" height="30" as="geometry" />
        </mxCell>
        <mxCell id="h06LFHkNTTkvMEBM5bT5-8" value="author_name: string" style="text;html=1;align=center;verticalAlign=middle;whiteSpace=wrap;rounded=0;fontSize=16;" vertex="1" parent="WIyWlLk6GJQsqaUBKTNV-1">
          <mxGeometry x="50" y="380" width="160" height="30" as="geometry" />
        </mxCell>
        <mxCell id="h06LFHkNTTkvMEBM5bT5-9" value="no-of books: integer" style="text;html=1;align=center;verticalAlign=middle;whiteSpace=wrap;rounded=0;fontSize=16;" vertex="1" parent="WIyWlLk6GJQsqaUBKTNV-1">
          <mxGeometry x="50" y="410" width="160" height="30" as="geometry" />
        </mxCell>
        <mxCell id="h06LFHkNTTkvMEBM5bT5-10" value="&amp;nbsp; remove catelog()&lt;br&gt;add to catelog()" style="text;html=1;align=center;verticalAlign=middle;whiteSpace=wrap;rounded=0;fontSize=16;" vertex="1" parent="WIyWlLk6GJQsqaUBKTNV-1">
          <mxGeometry x="30" y="450" width="160" height="30" as="geometry" />
        </mxCell>
        <mxCell id="h06LFHkNTTkvMEBM5bT5-11" value="" style="rounded=0;whiteSpace=wrap;html=1;" vertex="1" parent="WIyWlLk6GJQsqaUBKTNV-1">
          <mxGeometry x="40" y="560" width="290" height="150" as="geometry" />
        </mxCell>
        <mxCell id="h06LFHkNTTkvMEBM5bT5-12" value="reference" style="text;html=1;align=center;verticalAlign=middle;whiteSpace=wrap;rounded=0;fontSize=16;" vertex="1" parent="WIyWlLk6GJQsqaUBKTNV-1">
          <mxGeometry x="70" y="560" width="60" height="30" as="geometry" />
        </mxCell>
        <mxCell id="h06LFHkNTTkvMEBM5bT5-15" value="&amp;nbsp; &amp;nbsp; &amp;nbsp;Searching ()" style="text;html=1;align=center;verticalAlign=middle;whiteSpace=wrap;rounded=0;fontSize=16;" vertex="1" parent="WIyWlLk6GJQsqaUBKTNV-1">
          <mxGeometry x="20" y="630" width="160" height="30" as="geometry" />
        </mxCell>
        <mxCell id="h06LFHkNTTkvMEBM5bT5-16" value="" style="endArrow=none;html=1;rounded=0;fontSize=12;startSize=8;endSize=8;curved=1;exitX=0.692;exitY=0.011;exitDx=0;exitDy=0;exitPerimeter=0;entryX=0.461;entryY=1.003;entryDx=0;entryDy=0;entryPerimeter=0;" edge="1" parent="WIyWlLk6GJQsqaUBKTNV-1" target="h06LFHkNTTkvMEBM5bT5-1">
          <mxGeometry width="50" height="50" relative="1" as="geometry">
            <mxPoint x="164.64000000000004" y="350.45" as="sourcePoint" />
            <mxPoint x="160" y="224" as="targetPoint" />
          </mxGeometry>
        </mxCell>
        <mxCell id="h06LFHkNTTkvMEBM5bT5-17" value="" style="endArrow=none;html=1;rounded=0;fontSize=12;startSize=8;endSize=8;curved=1;exitX=0.628;exitY=0.019;exitDx=0;exitDy=0;exitPerimeter=0;" edge="1" parent="WIyWlLk6GJQsqaUBKTNV-1">
          <mxGeometry width="50" height="50" relative="1" as="geometry">
            <mxPoint x="169.1399999999999" y="559.9999999999999" as="sourcePoint" />
            <mxPoint x="169" y="500" as="targetPoint" />
          </mxGeometry>
        </mxCell>
        <mxCell id="h06LFHkNTTkvMEBM5bT5-18" value="" style="rounded=0;whiteSpace=wrap;html=1;" vertex="1" parent="WIyWlLk6GJQsqaUBKTNV-1">
          <mxGeometry x="780" y="50" width="290" height="150" as="geometry" />
        </mxCell>
        <mxCell id="h06LFHkNTTkvMEBM5bT5-19" value="Librarian" style="text;html=1;align=center;verticalAlign=middle;whiteSpace=wrap;rounded=0;fontSize=16;" vertex="1" parent="WIyWlLk6GJQsqaUBKTNV-1">
          <mxGeometry x="810" y="50" width="60" height="30" as="geometry" />
        </mxCell>
        <mxCell id="h06LFHkNTTkvMEBM5bT5-20" value="name: string" style="text;html=1;align=center;verticalAlign=middle;whiteSpace=wrap;rounded=0;fontSize=16;" vertex="1" parent="WIyWlLk6GJQsqaUBKTNV-1">
          <mxGeometry x="770" y="80" width="160" height="30" as="geometry" />
        </mxCell>
        <mxCell id="h06LFHkNTTkvMEBM5bT5-21" value="mobile number: integer" style="text;html=1;align=center;verticalAlign=middle;whiteSpace=wrap;rounded=0;fontSize=16;" vertex="1" parent="WIyWlLk6GJQsqaUBKTNV-1">
          <mxGeometry x="800" y="110" width="170" height="30" as="geometry" />
        </mxCell>
        <mxCell id="h06LFHkNTTkvMEBM5bT5-22" value="verification info() Search ()&lt;br&gt;return()" style="text;html=1;align=center;verticalAlign=middle;whiteSpace=wrap;rounded=0;fontSize=16;" vertex="1" parent="WIyWlLk6GJQsqaUBKTNV-1">
          <mxGeometry x="780" y="150" width="160" height="30" as="geometry" />
        </mxCell>
        <mxCell id="h06LFHkNTTkvMEBM5bT5-23" value="" style="rounded=0;whiteSpace=wrap;html=1;" vertex="1" parent="WIyWlLk6GJQsqaUBKTNV-1">
          <mxGeometry x="520" y="450" width="290" height="150" as="geometry" />
        </mxCell>
        <mxCell id="h06LFHkNTTkvMEBM5bT5-24" value="Member" style="text;html=1;align=center;verticalAlign=middle;whiteSpace=wrap;rounded=0;fontSize=16;" vertex="1" parent="WIyWlLk6GJQsqaUBKTNV-1">
          <mxGeometry x="550" y="450" width="60" height="30" as="geometry" />
        </mxCell>
        <mxCell id="h06LFHkNTTkvMEBM5bT5-25" value="name: string" style="text;html=1;align=center;verticalAlign=middle;whiteSpace=wrap;rounded=0;fontSize=16;" vertex="1" parent="WIyWlLk6GJQsqaUBKTNV-1">
          <mxGeometry x="540" y="480" width="160" height="30" as="geometry" />
        </mxCell>
        <mxCell id="h06LFHkNTTkvMEBM5bT5-26" value="address: string" style="text;html=1;align=center;verticalAlign=middle;whiteSpace=wrap;rounded=0;fontSize=16;" vertex="1" parent="WIyWlLk6GJQsqaUBKTNV-1">
          <mxGeometry x="540" y="510" width="160" height="30" as="geometry" />
        </mxCell>
        <mxCell id="h06LFHkNTTkvMEBM5bT5-27" value="request book()&amp;nbsp; &amp;nbsp; &amp;nbsp;return book()" style="text;html=1;align=center;verticalAlign=middle;whiteSpace=wrap;rounded=0;fontSize=16;" vertex="1" parent="WIyWlLk6GJQsqaUBKTNV-1">
          <mxGeometry x="550" y="550" width="160" height="30" as="geometry" />
        </mxCell>
        <mxCell id="h06LFHkNTTkvMEBM5bT5-28" value="" style="rounded=0;whiteSpace=wrap;html=1;" vertex="1" parent="WIyWlLk6GJQsqaUBKTNV-1">
          <mxGeometry x="880" y="390" width="240" height="150" as="geometry" />
        </mxCell>
        <mxCell id="h06LFHkNTTkvMEBM5bT5-29" value="Alert" style="text;html=1;align=center;verticalAlign=middle;whiteSpace=wrap;rounded=0;fontSize=16;" vertex="1" parent="WIyWlLk6GJQsqaUBKTNV-1">
          <mxGeometry x="910" y="390" width="60" height="30" as="geometry" />
        </mxCell>
        <mxCell id="h06LFHkNTTkvMEBM5bT5-30" value="issued_date:integer date" style="text;html=1;align=center;verticalAlign=middle;whiteSpace=wrap;rounded=0;fontSize=16;" vertex="1" parent="WIyWlLk6GJQsqaUBKTNV-1">
          <mxGeometry x="905" y="420" width="190" height="30" as="geometry" />
        </mxCell>
        <mxCell id="h06LFHkNTTkvMEBM5bT5-31" value="book name : string" style="text;html=1;align=center;verticalAlign=middle;whiteSpace=wrap;rounded=0;fontSize=16;" vertex="1" parent="WIyWlLk6GJQsqaUBKTNV-1">
          <mxGeometry x="900" y="450" width="160" height="30" as="geometry" />
        </mxCell>
        <mxCell id="h06LFHkNTTkvMEBM5bT5-32" value="fine call()&lt;br&gt;viewalert()" style="text;html=1;align=center;verticalAlign=middle;whiteSpace=wrap;rounded=0;fontSize=16;" vertex="1" parent="WIyWlLk6GJQsqaUBKTNV-1">
          <mxGeometry x="890" y="490" width="160" height="30" as="geometry" />
        </mxCell>
        <mxCell id="h06LFHkNTTkvMEBM5bT5-33" value="" style="rounded=0;whiteSpace=wrap;html=1;" vertex="1" parent="WIyWlLk6GJQsqaUBKTNV-1">
          <mxGeometry x="370" y="760" width="290" height="150" as="geometry" />
        </mxCell>
        <mxCell id="h06LFHkNTTkvMEBM5bT5-34" value="faculty member" style="text;html=1;align=center;verticalAlign=middle;whiteSpace=wrap;rounded=0;fontSize=16;" vertex="1" parent="WIyWlLk6GJQsqaUBKTNV-1">
          <mxGeometry x="410" y="760" width="120" height="30" as="geometry" />
        </mxCell>
        <mxCell id="h06LFHkNTTkvMEBM5bT5-35" value="name: string" style="text;html=1;align=center;verticalAlign=middle;whiteSpace=wrap;rounded=0;fontSize=16;" vertex="1" parent="WIyWlLk6GJQsqaUBKTNV-1">
          <mxGeometry x="390" y="790" width="160" height="30" as="geometry" />
        </mxCell>
        <mxCell id="h06LFHkNTTkvMEBM5bT5-36" value="id: integer" style="text;html=1;align=center;verticalAlign=middle;whiteSpace=wrap;rounded=0;fontSize=16;" vertex="1" parent="WIyWlLk6GJQsqaUBKTNV-1">
          <mxGeometry x="390" y="820" width="160" height="30" as="geometry" />
        </mxCell>
        <mxCell id="h06LFHkNTTkvMEBM5bT5-37" value="checkout()&lt;br&gt;Book()" style="text;html=1;align=center;verticalAlign=middle;whiteSpace=wrap;rounded=0;fontSize=16;" vertex="1" parent="WIyWlLk6GJQsqaUBKTNV-1">
          <mxGeometry x="380" y="860" width="160" height="30" as="geometry" />
        </mxCell>
        <mxCell id="h06LFHkNTTkvMEBM5bT5-38" value="" style="rounded=0;whiteSpace=wrap;html=1;" vertex="1" parent="WIyWlLk6GJQsqaUBKTNV-1">
          <mxGeometry x="800" y="750" width="290" height="150" as="geometry" />
        </mxCell>
        <mxCell id="h06LFHkNTTkvMEBM5bT5-39" value="student" style="text;html=1;align=center;verticalAlign=middle;whiteSpace=wrap;rounded=0;fontSize=16;" vertex="1" parent="WIyWlLk6GJQsqaUBKTNV-1">
          <mxGeometry x="830" y="750" width="60" height="30" as="geometry" />
        </mxCell>
        <mxCell id="h06LFHkNTTkvMEBM5bT5-40" value="name: string" style="text;html=1;align=center;verticalAlign=middle;whiteSpace=wrap;rounded=0;fontSize=16;" vertex="1" parent="WIyWlLk6GJQsqaUBKTNV-1">
          <mxGeometry x="820" y="780" width="160" height="30" as="geometry" />
        </mxCell>
        <mxCell id="h06LFHkNTTkvMEBM5bT5-41" value="studentid: integer" style="text;html=1;align=center;verticalAlign=middle;whiteSpace=wrap;rounded=0;fontSize=16;" vertex="1" parent="WIyWlLk6GJQsqaUBKTNV-1">
          <mxGeometry x="820" y="810" width="160" height="30" as="geometry" />
        </mxCell>
        <mxCell id="h06LFHkNTTkvMEBM5bT5-42" value="checkout book()" style="text;html=1;align=center;verticalAlign=middle;whiteSpace=wrap;rounded=0;fontSize=16;" vertex="1" parent="WIyWlLk6GJQsqaUBKTNV-1">
          <mxGeometry x="820" y="840" width="160" height="30" as="geometry" />
        </mxCell>
        <mxCell id="h06LFHkNTTkvMEBM5bT5-43" value="" style="endArrow=none;html=1;rounded=0;fontSize=12;startSize=8;endSize=8;curved=1;" edge="1" parent="WIyWlLk6GJQsqaUBKTNV-1">
          <mxGeometry width="50" height="50" relative="1" as="geometry">
            <mxPoint x="520" y="400" as="sourcePoint" />
            <mxPoint x="520" y="110" as="targetPoint" />
          </mxGeometry>
        </mxCell>
        <mxCell id="h06LFHkNTTkvMEBM5bT5-44" value="" style="endArrow=none;html=1;rounded=0;fontSize=12;startSize=8;endSize=8;curved=1;exitX=1.017;exitY=0.328;exitDx=0;exitDy=0;exitPerimeter=0;" edge="1" parent="WIyWlLk6GJQsqaUBKTNV-1" source="h06LFHkNTTkvMEBM5bT5-6">
          <mxGeometry width="50" height="50" relative="1" as="geometry">
            <mxPoint x="360.64000000000004" y="400.45" as="sourcePoint" />
            <mxPoint x="520" y="400" as="targetPoint" />
          </mxGeometry>
        </mxCell>
        <mxCell id="h06LFHkNTTkvMEBM5bT5-45" value="" style="endArrow=none;html=1;rounded=0;fontSize=12;startSize=8;endSize=8;curved=1;entryX=0;entryY=0.435;entryDx=0;entryDy=0;entryPerimeter=0;" edge="1" parent="WIyWlLk6GJQsqaUBKTNV-1" target="h06LFHkNTTkvMEBM5bT5-18">
          <mxGeometry width="50" height="50" relative="1" as="geometry">
            <mxPoint x="520" y="110" as="sourcePoint" />
            <mxPoint x="717.5" y="115.38000000000001" as="targetPoint" />
          </mxGeometry>
        </mxCell>
        <mxCell id="h06LFHkNTTkvMEBM5bT5-46" value="" style="endArrow=none;html=1;rounded=0;fontSize=12;startSize=8;endSize=8;curved=1;" edge="1" parent="WIyWlLk6GJQsqaUBKTNV-1">
          <mxGeometry width="50" height="50" relative="1" as="geometry">
            <mxPoint x="600" y="450" as="sourcePoint" />
            <mxPoint x="600" y="170" as="targetPoint" />
          </mxGeometry>
        </mxCell>
        <mxCell id="h06LFHkNTTkvMEBM5bT5-47" value="" style="endArrow=none;html=1;rounded=0;fontSize=12;startSize=8;endSize=8;curved=1;entryX=0;entryY=0.75;entryDx=0;entryDy=0;" edge="1" parent="WIyWlLk6GJQsqaUBKTNV-1" target="h06LFHkNTTkvMEBM5bT5-22">
          <mxGeometry width="50" height="50" relative="1" as="geometry">
            <mxPoint x="600" y="173" as="sourcePoint" />
            <mxPoint x="860" y="175" as="targetPoint" />
          </mxGeometry>
        </mxCell>
        <mxCell id="h06LFHkNTTkvMEBM5bT5-52" value="" style="endArrow=none;html=1;rounded=0;fontSize=12;startSize=8;endSize=8;curved=1;" edge="1" parent="WIyWlLk6GJQsqaUBKTNV-1">
          <mxGeometry width="50" height="50" relative="1" as="geometry">
            <mxPoint x="530" y="690" as="sourcePoint" />
            <mxPoint x="860" y="690" as="targetPoint" />
          </mxGeometry>
        </mxCell>
        <mxCell id="h06LFHkNTTkvMEBM5bT5-53" value="" style="endArrow=none;html=1;rounded=0;fontSize=12;startSize=8;endSize=8;curved=1;exitX=0.628;exitY=0.019;exitDx=0;exitDy=0;exitPerimeter=0;" edge="1" parent="WIyWlLk6GJQsqaUBKTNV-1">
          <mxGeometry width="50" height="50" relative="1" as="geometry">
            <mxPoint x="530.1399999999999" y="749.9999999999999" as="sourcePoint" />
            <mxPoint x="530" y="690" as="targetPoint" />
          </mxGeometry>
        </mxCell>
        <mxCell id="h06LFHkNTTkvMEBM5bT5-54" value="" style="endArrow=none;html=1;rounded=0;fontSize=12;startSize=8;endSize=8;curved=1;exitX=0.628;exitY=0.019;exitDx=0;exitDy=0;exitPerimeter=0;" edge="1" parent="WIyWlLk6GJQsqaUBKTNV-1">
          <mxGeometry width="50" height="50" relative="1" as="geometry">
            <mxPoint x="859.5199999999999" y="749.9999999999999" as="sourcePoint" />
            <mxPoint x="859.38" y="690" as="targetPoint" />
          </mxGeometry>
        </mxCell>
        <mxCell id="h06LFHkNTTkvMEBM5bT5-55" value="" style="endArrow=none;html=1;rounded=0;fontSize=12;startSize=8;endSize=8;curved=1;entryX=0.461;entryY=1.003;entryDx=0;entryDy=0;entryPerimeter=0;" edge="1" parent="WIyWlLk6GJQsqaUBKTNV-1">
          <mxGeometry width="50" height="50" relative="1" as="geometry">
            <mxPoint x="670" y="690" as="sourcePoint" />
            <mxPoint x="670" y="600" as="targetPoint" />
          </mxGeometry>
        </mxCell>
        <mxCell id="h06LFHkNTTkvMEBM5bT5-56" value="" style="endArrow=none;html=1;rounded=0;fontSize=12;startSize=8;endSize=8;curved=1;exitX=0.5;exitY=0;exitDx=0;exitDy=0;" edge="1" parent="WIyWlLk6GJQsqaUBKTNV-1" source="h06LFHkNTTkvMEBM5bT5-29">
          <mxGeometry width="50" height="50" relative="1" as="geometry">
            <mxPoint x="940" y="480" as="sourcePoint" />
            <mxPoint x="940" y="200" as="targetPoint" />
          </mxGeometry>
        </mxCell>
        <mxCell id="h06LFHkNTTkvMEBM5bT5-57" value="" style="endArrow=none;html=1;rounded=0;fontSize=12;startSize=8;endSize=8;curved=1;exitX=1.017;exitY=0.328;exitDx=0;exitDy=0;exitPerimeter=0;entryX=0;entryY=0.182;entryDx=0;entryDy=0;entryPerimeter=0;" edge="1" parent="WIyWlLk6GJQsqaUBKTNV-1" target="h06LFHkNTTkvMEBM5bT5-23">
          <mxGeometry width="50" height="50" relative="1" as="geometry">
            <mxPoint x="320" y="478.75" as="sourcePoint" />
            <mxPoint x="440" y="479.75" as="targetPoint" />
          </mxGeometry>
        </mxCell>
      </root>
    </mxGraphModel>
  </diagram>
</mxfile>
